<svg xmlns="http://www.w3.org/2000/svg" version="1.1" xmlns:xlink="http://www.w3.org/1999/xlink" xmlns:svgjs="http://svgjs.dev/svgjs" width="1000" height="1000" viewBox="0 0 1000 1000"><rect width="1000" height="1000" fill="#000000"></rect><g transform="matrix(0.7,0,0,0.7,149.57575757901589,448.62887198564664)"><svg viewBox="0 0 396 59" data-background-color="#ffffff" preserveAspectRatio="xMidYMid meet" height="148" width="1000" xmlns="http://www.w3.org/2000/svg" xmlns:xlink="http://www.w3.org/1999/xlink"><g id="tight-bounds" transform="matrix(1,0,0,1,0.24000000184332748,-0.244241767887587)"><svg viewBox="0 0 395.52 59.488483535775174" height="59.488483535775174" width="395.52"><g><svg viewBox="0 0 480.0573065071019 72.20338080091098" height="59.488483535775174" width="395.52"><g transform="matrix(1,0,0,1,0,9.97890429303473)"><svg viewBox="0 0 395.52 52.245572214841516" height="52.245572214841516" width="395.52"><g id="textblocktransform"><svg viewBox="0 0 395.52 52.245572214841516" height="52.245572214841516" width="395.52" id="textblock"><g><svg viewBox="0 0 395.52 52.245572214841516" height="52.245572214841516" width="395.52"><g transform="matrix(1,0,0,1,0,0)"><svg width="395.52" viewBox="0.20000000298023224 -33.900001525878906 263.42999267578125 34.80000305175781" height="52.245572214841516" data-palette-color="#242038"><path d="M15.25 0.15L11.8 0.15 2.95-29.6Q2.6-30.75 2.2-31.28 1.8-31.8 0.8-32.25L0.8-32.25 0.2-32.5 0.2-33 13.45-33 13.45-32.5 12.4-32.1Q11.25-31.65 10.85-31 10.45-30.35 10.8-29.2L10.8-29.2 16.25-8.4 22.15-25.85 21-29.4Q20.65-30.45 20.35-31 20.05-31.55 19.35-31.9L19.35-31.9 18.25-32.5 18.25-33 30.8-33 30.8-32.5 29.25-31.9Q28.25-31.55 28.13-30.88 28-30.2 28.35-29.15L28.35-29.15 34.7-7.9 40.7-28.75Q41.05-29.95 40.95-30.85 40.85-31.75 39.7-32.15L39.7-32.15 38.65-32.5 38.65-33 45.6-33 45.6-32.5 44.3-32Q43.3-31.65 42.9-30.9 42.5-30.15 42.2-29.05L42.2-29.05 33.9 0.15 30.45 0.15 22.95-23.35 15.25 0.15ZM60 0L47.15 0 47.15-0.5 48.15-0.9Q49.15-1.25 49.47-1.85 49.8-2.45 49.8-3.45L49.8-3.45 49.8-29.55Q49.8-30.55 49.5-31.15 49.2-31.75 48.15-32.1L48.15-32.1 47.15-32.5 47.15-33 60-33 60-32.5 59-32.1Q58-31.75 57.67-31.15 57.35-30.55 57.35-29.55L57.35-29.55 57.35-3.45Q57.35-2.45 57.67-1.88 58-1.3 59-0.9L59-0.9 60-0.5 60 0ZM72.95 0.9L72.95 0.9Q70.2 0.9 67.35 0.23 64.5-0.45 62.6-1.55L62.6-1.55 62.85-8.35 63.35-8.35 64.9-5.1Q65.6-3.7 66.4-2.63 67.2-1.55 68.6-0.95L68.6-0.95Q69.6-0.45 70.52-0.28 71.45-0.1 72.6-0.1L72.6-0.1Q75.65-0.1 77.42-1.75 79.2-3.4 79.2-6L79.2-6Q79.2-8.45 78-9.83 76.8-11.2 74.15-12.5L74.15-12.5 72.1-13.4Q67.8-15.3 65.37-17.78 62.95-20.25 62.95-24.35L62.95-24.35Q62.95-27.3 64.47-29.45 66-31.6 68.72-32.75 71.45-33.9 75.1-33.9L75.1-33.9Q77.75-33.9 80.12-33.2 82.5-32.5 84.25-31.3L84.25-31.3 83.95-25.3 83.45-25.3 81.4-29.05Q80.55-30.8 79.7-31.53 78.85-32.25 77.75-32.55L77.75-32.55Q77.1-32.75 76.55-32.83 76-32.9 75.15-32.9L75.15-32.9Q72.6-32.9 70.85-31.43 69.1-29.95 69.1-27.45L69.1-27.45Q69.1-24.9 70.45-23.38 71.8-21.85 74.4-20.65L74.4-20.65 76.7-19.65Q81.5-17.55 83.6-15.18 85.7-12.8 85.7-9.05L85.7-9.05Q85.7-4.65 82.37-1.88 79.05 0.9 72.95 0.9ZM113.19 0L88.24 0 88.24-0.5 89.39-0.95Q90.24-1.3 90.57-1.88 90.89-2.45 90.89-3.45L90.89-3.45 90.89-29.55Q90.89-30.55 90.62-31.13 90.34-31.7 89.39-32.05L89.39-32.05 88.24-32.5 88.24-33 112.19-33 112.49-25.3 111.99-25.3 109.84-30Q109.39-30.9 108.89-31.45 108.39-32 107.39-32L107.39-32 98.39-32 98.39-17.55 103.74-17.55Q104.74-17.55 105.27-18.07 105.79-18.6 106.19-19.5L106.19-19.5 107.19-21.5 107.69-21.5 107.69-12.5 107.19-12.5 106.19-14.6Q105.74-15.5 105.24-16.03 104.74-16.55 103.74-16.55L103.74-16.55 98.39-16.55 98.39-1 108.49-1Q109.49-1 110.04-1.53 110.59-2.05 110.94-3L110.94-3 112.99-7.7 113.49-7.7 113.19 0ZM133.19 0.9L133.19 0.9Q128.34 0.9 124.42-1.07 120.49-3.05 118.19-6.95 115.89-10.85 115.89-16.5L115.89-16.5Q115.89-20.8 117.29-24.05 118.69-27.3 121.12-29.5 123.54-31.7 126.72-32.8 129.89-33.9 133.44-33.9L133.44-33.9Q136.29-33.9 138.69-33.25 141.09-32.6 143.19-31.45L143.19-31.45 143.39-25.3 142.89-25.3 140.39-29.3Q139.89-30.25 139.29-31.03 138.69-31.8 137.79-32.2L137.79-32.2Q137.04-32.55 136.32-32.73 135.59-32.9 134.49-32.9L134.49-32.9Q131.59-32.9 129.22-31.35 126.84-29.8 125.42-26.23 123.99-22.65 123.99-16.45L123.99-16.45Q123.99-10.3 125.34-6.73 126.69-3.15 129.02-1.63 131.34-0.1 134.24-0.1L134.24-0.1Q135.84-0.1 136.79-0.33 137.74-0.55 138.69-1L138.69-1Q139.64-1.4 140.14-2.18 140.64-2.95 141.04-3.85L141.04-3.85 143.24-8.75 143.74-8.75 143.59-1.6Q141.49-0.5 138.89 0.2 136.29 0.9 133.19 0.9ZM170.44 0L146.14 0 146.14-0.5 147.19-0.9Q148.24-1.3 148.51-1.88 148.79-2.45 148.79-3.45L148.79-3.45 148.79-29.55Q148.79-30.55 148.49-31.15 148.19-31.75 147.19-32.1L147.19-32.1 146.14-32.5 146.14-33 158.89-33 158.89-32.5 157.99-32.1Q157.04-31.75 156.69-31.13 156.34-30.5 156.34-29.5L156.34-29.5 156.34-1 164.04-1Q165.89-1 166.76-1.9 167.64-2.8 168.44-4.5L168.44-4.5 170.39-8.7 170.89-8.7 170.44 0ZM185.99 0L173.14 0 173.14-0.5 174.14-0.9Q175.14-1.25 175.46-1.85 175.79-2.45 175.79-3.45L175.79-3.45 175.79-29.55Q175.79-30.55 175.49-31.15 175.19-31.75 174.14-32.1L174.14-32.1 173.14-32.5 173.14-33 185.99-33 185.99-32.5 184.99-32.1Q183.99-31.75 183.66-31.15 183.34-30.55 183.34-29.55L183.34-29.55 183.34-3.45Q183.34-2.45 183.66-1.88 183.99-1.3 184.99-0.9L184.99-0.9 185.99-0.5 185.99 0ZM196.43 0L188.83 0 188.83-0.5 190.48-1Q191.38-1.25 191.78-1.98 192.18-2.7 192.18-3.7L192.18-3.7 192.18-27.75Q191.63-28.95 191.31-29.55 190.98-30.15 190.58-30.58 190.18-31 189.48-31.65L189.48-31.65 188.63-32.5 188.63-33 197.48-33 214.08-10.35 214.08-29.2Q214.08-30.2 213.76-31 213.43-31.8 212.43-32.05L212.43-32.05 210.78-32.5 210.78-33 217.93-33 217.93-32.5 216.58-32.05Q215.68-31.75 215.48-31 215.28-30.25 215.28-29.25L215.28-29.25 215.28 0.15 212.48 0.15 193.38-26.1 193.38-3.7Q193.38-2.7 193.68-2 193.98-1.3 194.93-1L194.93-1 196.43-0.5 196.43 0ZM233.68 0L220.83 0 220.83-0.5 221.83-0.9Q222.83-1.25 223.16-1.85 223.48-2.45 223.48-3.45L223.48-3.45 223.48-29.55Q223.48-30.55 223.18-31.15 222.88-31.75 221.83-32.1L221.83-32.1 220.83-32.5 220.83-33 233.68-33 233.68-32.5 232.68-32.1Q231.68-31.75 231.36-31.15 231.03-30.55 231.03-29.55L231.03-29.55 231.03-3.45Q231.03-2.45 231.36-1.88 231.68-1.3 232.68-0.9L232.68-0.9 233.68-0.5 233.68 0ZM253.08 0.9L253.08 0.9Q248.23 0.9 244.3-1.07 240.38-3.05 238.08-6.95 235.78-10.85 235.78-16.5L235.78-16.5Q235.78-20.8 237.18-24.05 238.58-27.3 241-29.5 243.43-31.7 246.6-32.8 249.78-33.9 253.33-33.9L253.33-33.9Q256.18-33.9 258.58-33.25 260.98-32.6 263.08-31.45L263.08-31.45 263.28-25.3 262.78-25.3 260.28-29.3Q259.78-30.25 259.18-31.03 258.58-31.8 257.68-32.2L257.68-32.2Q256.93-32.55 256.2-32.73 255.48-32.9 254.38-32.9L254.38-32.9Q251.48-32.9 249.1-31.35 246.73-29.8 245.3-26.23 243.88-22.65 243.88-16.45L243.88-16.45Q243.88-10.3 245.23-6.73 246.58-3.15 248.9-1.63 251.23-0.1 254.13-0.1L254.13-0.1Q255.73-0.1 256.68-0.33 257.63-0.55 258.58-1L258.58-1Q259.53-1.4 260.03-2.18 260.53-2.95 260.93-3.85L260.93-3.85 263.13-8.75 263.63-8.75 263.48-1.6Q261.38-0.5 258.78 0.2 256.18 0.9 253.08 0.9Z" opacity="1" transform="matrix(1,0,0,1,0,0)" fill="#ffffff" class="wordmark-text-0" data-fill-palette-color="primary" id="text-0"></path></svg></g></svg></g></svg></g></svg></g><g transform="matrix(1,0,0,1,407.8539257061909,0)"><svg viewBox="0 0 72.20338080091098 72.20338080091098" height="72.20338080091098" width="72.20338080091098"><g data-palette-color="#9067c6"><rect width="19.735590752249" height="72.20338080091098" fill="#ffffff" stroke="transparent" data-fill-palette-color="accent" x="0" fill-opacity="1"></rect><rect width="19.735590752249" height="72.20338080091098" fill="#ffffff" stroke="transparent" data-fill-palette-color="accent" x="24.06779360030366" fill-opacity="0.75"></rect><rect width="19.735590752249" height="72.20338080091098" fill="#ffffff" stroke="transparent" data-fill-palette-color="accent" x="48.13558720060732" fill-opacity="0.5"></rect></g></svg></g></svg></g><defs></defs></svg><rect width="395.52" height="59.488483535775174" fill="none" stroke="none" visibility="hidden"></rect></g></svg></g></svg>